<?xml version="1.0" standalone="no"?>
<!DOCTYPE svg PUBLIC "-//W3C//DTD SVG 20010904//EN"
 "http://www.w3.org/TR/2001/REC-SVG-20010904/DTD/svg10.dtd">
<svg version="1.0" xmlns="http://www.w3.org/2000/svg"
 width="500.000000pt" height="500.000000pt" viewBox="0 0 500.000000 500.000000"
 preserveAspectRatio="xMidYMid meet">
<metadata>
Created by potrace 1.11, written by Peter Selinger 2001-2013
</metadata>
<g transform="translate(0.000000,500.000000) scale(0.100000,-0.100000)"
fill="#000000" stroke="none">
<path d="M2245 4988 c-475 -56 -881 -216 -1251 -493 -180 -136 -389 -346 -506
-510 -75 -106 -108 -155 -108 -162 0 -3 -6 -14 -14 -22 -17 -20 -69 -113 -114
-206 -83 -170 -154 -374 -195 -565 -25 -112 -30 -142 -45 -280 -14 -130 -6
-547 13 -602 2 -7 6 -31 9 -53 39 -299 189 -685 376 -967 189 -282 451 -546
715 -716 273 -177 599 -312 875 -362 30 -6 64 -12 75 -14 11 -2 45 -7 75 -11
30 -4 64 -9 75 -12 11 -2 110 -6 220 -8 206 -4 355 6 475 30 14 3 41 8 60 11
112 18 354 91 485 147 454 193 829 501 1108 910 37 54 67 99 67 102 0 2 19 36
43 77 127 217 239 539 288 828 31 182 33 582 4 745 -13 76 -18 102 -22 130 -6
42 -61 249 -83 315 -88 261 -227 515 -408 750 -96 124 -311 335 -437 430 -55
41 -101 78 -103 83 -2 4 -8 7 -13 7 -6 0 -36 17 -67 38 -203 136 -481 255
-747 321 -85 21 -111 26 -215 41 -36 6 -78 13 -95 16 -51 9 -466 11 -540 2z"/>
</g>
</svg>
