<?xml version="1.0" encoding="utf-8"?>
<!-- Generator: Adobe Illustrator 19.0.0, SVG Export Plug-In . SVG Version: 6.00 Build 0)  -->
<svg version="1.1" id="Layer_1" xmlns="http://www.w3.org/2000/svg" xmlns:xlink="http://www.w3.org/1999/xlink" x="0px" y="0px"
	 viewBox="0 0 137.2 137.2" style="enable-background:new 0 0 137.2 137.2;" xml:space="preserve">
<style type="text/css">
	.st0{fill:#D1D3D4;}
	.st1{fill:#1A1A1A;}
</style>
<g id="XMLID_92_">
	<path id="XMLID_93_" class="st0" d="M116.8,137.2H0V20.3C0,9.1,9.1,0,20.3,0h116.8v116.8C137.2,128,128,137.2,116.8,137.2z
		 M3.7,133.5h113.1c9.2,0,16.6-7.5,16.6-16.6V3.7H20.3c-9.2,0-16.6,7.5-16.6,16.6V133.5z"/>
</g>
<g id="XMLID_66_">
	<path id="XMLID_216_" class="st1" d="M79.7,99.5L77.6,98c-0.5-0.3-1.1-0.3-1.6,0l-3.6,2.4L68.8,98c-0.5-0.3-1.1-0.3-1.6,0l-3.6,2.4
		L60,98c-0.5-0.3-1.1-0.3-1.6,0l-2.1,1.4V67h-2.9v35.1c0,0.4,0.2,0.8,0.4,1L67,116.4c0.3,0.3,0.7,0.4,1,0.4c0.4,0,0.7-0.1,1-0.4
		l13.2-13.2h0c0.3-0.3,0.4-0.6,0.4-1V74.4h-2.9V99.5z M59.2,101l3.6,2.4c0.5,0.3,1.1,0.3,1.6,0L68,101l3.6,2.4
		c0.5,0.3,1.1,0.3,1.6,0l3.6-2.4l2.1,1.4l-5.6,5.6H62.7l-5.6-5.6L59.2,101z M68,113.3l-2.3-2.3h4.6L68,113.3z M68,113.3"/>
	<path id="XMLID_165_" class="st1" d="M49.1,54.3c-0.2-0.5-0.6-0.9-1.2-1l-4.2-0.6l-1.9-3.8c-0.5-1-2.1-1-2.6,0l-1.9,3.8L33,53.3
		c-0.5,0.1-1,0.5-1.2,1c-0.2,0.5,0,1.1,0.4,1.5l3.1,3L34.5,63c-0.1,0.6,0.1,1.1,0.6,1.4c0.5,0.3,1.1,0.4,1.5,0.1l3.8-2l3.8,2
		c0.2,0.1,0.5,0.2,0.7,0.2c0.3,0,0.6-0.1,0.9-0.3c0.5-0.3,0.7-0.9,0.6-1.4l-0.7-4.2l3.1-3C49.1,55.4,49.3,54.8,49.1,54.3L49.1,54.3z
		 M43,57.2c-0.3,0.3-0.5,0.8-0.4,1.3l0.4,2.1l-1.9-1c-0.2-0.1-0.4-0.2-0.7-0.2s-0.5,0.1-0.7,0.2l-1.9,1l0.4-2.1
		c0.1-0.5-0.1-1-0.4-1.3l-1.5-1.5l2.1-0.3c0.5-0.1,0.9-0.4,1.1-0.8l0.9-1.9l0.9,1.9c0.2,0.4,0.6,0.7,1.1,0.8l2.1,0.3L43,57.2z
		 M43,57.2"/>
	<path id="XMLID_154_" class="st1" d="M47.6,35.8L46.7,41c-0.1,0.5,0.1,1.1,0.6,1.4c0.5,0.3,1,0.4,1.5,0.1l4.7-2.5l4.7,2.5
		c0.2,0.1,0.5,0.2,0.7,0.2c0.3,0,0.6-0.1,0.9-0.3c0.5-0.3,0.7-0.9,0.6-1.4l-0.9-5.3l3.8-3.7c0.4-0.4,0.5-1,0.4-1.5
		c-0.2-0.5-0.6-0.9-1.2-1l-5.3-0.8l-2.4-4.8c-0.5-1-2.1-1-2.6,0l-2.4,4.8l-5.3,0.8c-0.6,0.1-1,0.5-1.2,1c-0.2,0.5,0,1.1,0.4,1.5
		L47.6,35.8z M51,31.5c0.5-0.1,0.9-0.4,1.1-0.8l1.4-2.8l1.4,2.8c0.2,0.4,0.6,0.7,1.1,0.8l3.1,0.5l-2.3,2.2c-0.3,0.3-0.5,0.8-0.4,1.3
		l0.5,3.1l-2.8-1.5C54,37,53.8,37,53.6,37c-0.2,0-0.5,0.1-0.7,0.2l-2.8,1.5l0.5-3.1c0.1-0.5-0.1-1-0.4-1.3L47.9,32L51,31.5z
		 M51,31.5"/>
	<path id="XMLID_143_" class="st1" d="M88.1,45.2l6-5.9c0.4-0.4,0.5-1,0.4-1.5c-0.2-0.5-0.6-0.9-1.2-1L85,35.6L81.2,28
		c-0.5-1-2.1-1-2.6,0l-3.7,7.6l-8.3,1.2c-0.6,0.1-1,0.5-1.2,1c-0.2,0.5,0,1.1,0.4,1.5l6,5.9l-1.4,8.3c-0.1,0.5,0.1,1.1,0.6,1.4
		c0.5,0.3,1.1,0.4,1.5,0.1l7.5-3.9l7.5,3.9c0.2,0.1,0.5,0.2,0.7,0.2c0.3,0,0.6-0.1,0.9-0.3c0.5-0.3,0.7-0.9,0.6-1.4L88.1,45.2z
		 M85.5,43.6c-0.3,0.3-0.5,0.8-0.4,1.3l1.1,6.2l-5.5-2.9C80.4,48,80.1,48,79.9,48c-0.2,0-0.5,0.1-0.7,0.2l-5.5,2.9l1.1-6.2
		c0.1-0.5-0.1-1-0.4-1.3l-4.5-4.4l6.2-0.9c0.5-0.1,0.9-0.4,1.1-0.8l2.8-5.6l2.8,5.6c0.2,0.4,0.6,0.7,1.1,0.8l6.2,0.9L85.5,43.6z
		 M85.5,43.6"/>
	<path id="XMLID_136_" class="st1" d="M104.8,61.5l-3.7-0.5l-1.7-3.4c-0.5-1-2.1-1-2.6,0L95.1,61l-3.7,0.5c-0.5,0.1-1,0.5-1.2,1
		c-0.2,0.5,0,1.1,0.4,1.5l2.7,2.6l-0.6,3.7c-0.1,0.5,0.1,1.1,0.6,1.4c0.3,0.2,0.6,0.3,0.9,0.3c0.2,0,0.5-0.1,0.7-0.2l3.3-1.7
		l3.3,1.7c0.5,0.3,1.1,0.2,1.5-0.1c0.5-0.3,0.7-0.9,0.6-1.4l-0.6-3.7l2.7-2.6c0.4-0.4,0.5-1,0.4-1.5C105.8,62,105.3,61.6,104.8,61.5
		L104.8,61.5z M100.3,65.1c-0.3,0.3-0.5,0.8-0.4,1.3l0.3,1.5l-1.4-0.7c-0.2-0.1-0.5-0.2-0.7-0.2c-0.2,0-0.5,0.1-0.7,0.2l-1.4,0.7
		l0.3-1.5c0.1-0.5-0.1-1-0.4-1.3L94.8,64l1.5-0.2c0.5-0.1,0.9-0.4,1.1-0.8l0.7-1.4l0.7,1.4c0.2,0.4,0.6,0.7,1.1,0.8l1.5,0.2
		L100.3,65.1z M100.3,65.1"/>
	<path id="XMLID_133_" class="st1" d="M63.6,77.3h2.9c0-10.5-7.9-19-17.6-19v2.9C57,61.2,63.6,68.4,63.6,77.3L63.6,77.3z M63.6,77.3
		"/>
	<path id="XMLID_130_" class="st1" d="M72.4,84.6h2.9c0-10.3,4.7-19,10.2-19v-2.9C78.2,62.7,72.4,72.3,72.4,84.6L72.4,84.6z
		 M72.4,84.6"/>
	<path id="XMLID_127_" class="st1" d="M60.7,59.7h2.9c0-3.2,2-5.9,4.4-5.9v-2.9C64,50.9,60.7,54.9,60.7,59.7L60.7,59.7z M60.7,59.7"
		/>
	<path id="XMLID_124_" class="st1" d="M50.4,46.5c2.4,0,4.4,2.6,4.4,5.9h2.9c0-4.8-3.3-8.8-7.3-8.8V46.5z M50.4,46.5"/>
	<path id="XMLID_121_" class="st1" d="M81.2,58.3v-2.9C73.9,55.3,68,61.9,68,70h2.9C70.9,63.5,75.5,58.3,81.2,58.3L81.2,58.3z
		 M81.2,58.3"/>
	<rect id="XMLID_115_" x="72.4" y="87.5" class="st1" width="2.9" height="2.9"/>
	<rect id="XMLID_114_" x="68" y="72.9" class="st1" width="2.9" height="2.9"/>
	<rect id="XMLID_113_" x="63.6" y="80.2" class="st1" width="2.9" height="2.9"/>
	<rect id="XMLID_112_" x="63.6" y="86.1" class="st1" width="2.9" height="2.9"/>
	<rect id="XMLID_110_" x="63.6" y="91.9" class="st1" width="2.9" height="2.9"/>
	<rect id="XMLID_109_" x="38.7" y="67" class="st1" width="2.9" height="2.9"/>
	<rect id="XMLID_108_" x="21.1" y="46.5" class="st1" width="2.9" height="2.9"/>
	<rect id="XMLID_107_" x="32.8" y="40.7" class="st1" width="2.9" height="2.9"/>
	<rect id="XMLID_106_" x="92.9" y="48" class="st1" width="2.9" height="2.9"/>
	<rect id="XMLID_105_" x="109" y="37.8" class="st1" width="2.9" height="2.9"/>
	<rect id="XMLID_103_" x="27" y="30.4" class="st1" width="2.9" height="2.9"/>
	<rect id="XMLID_99_" x="37.2" y="29" class="st1" width="2.9" height="2.9"/>
	<rect id="XMLID_91_" x="91.4" y="27.5" class="st1" width="2.9" height="2.9"/>
	<rect id="XMLID_90_" x="100.2" y="39.2" class="st1" width="2.9" height="2.9"/>
	<path id="XMLID_87_" class="st1" d="M27,58.3h-2.9v2.9h-2.9v2.9h2.9V67H27v-2.9h2.9v-2.9H27V58.3z M27,58.3"/>
	<path id="XMLID_76_" class="st1" d="M110.5,46.5h-2.9v2.9h-2.9v2.9h2.9v2.9h2.9v-2.9h2.9v-2.9h-2.9V46.5z M110.5,46.5"/>
	<path id="XMLID_67_" class="st1" d="M110.5,23.1c-2.4,0-4.4,2-4.4,4.4c0,2.4,2,4.4,4.4,4.4c2.4,0,4.4-2,4.4-4.4
		C114.9,25.1,112.9,23.1,110.5,23.1L110.5,23.1z M110.5,29c-0.8,0-1.5-0.7-1.5-1.5c0-0.8,0.7-1.5,1.5-1.5c0.8,0,1.5,0.6,1.5,1.5
		C111.9,28.3,111.3,29,110.5,29L110.5,29z M110.5,29"/>
</g>
</svg>
