<?xml version="1.0" encoding="utf-8"?>
<!-- Generator: Adobe Illustrator 19.0.0, SVG Export Plug-In . SVG Version: 6.00 Build 0)  -->
<svg version="1.1" id="Layer_1" xmlns="http://www.w3.org/2000/svg" xmlns:xlink="http://www.w3.org/1999/xlink" x="0px" y="0px"
	 viewBox="0 0 137.2 137.2" style="enable-background:new 0 0 137.2 137.2;" xml:space="preserve">
<style type="text/css">
	.st0{fill:#D1D3D4;}
	.st1{fill:#1A1A1A;}
</style>
<g id="XMLID_66_">
	<path id="XMLID_225_" class="st0" d="M116.8,137.2H0V20.3C0,9.1,9.1,0,20.3,0h116.8v116.8C137.2,128,128,137.2,116.8,137.2z
		 M3.7,133.5h113.1c9.2,0,16.6-7.5,16.6-16.6V3.7H20.3c-9.2,0-16.6,7.5-16.6,16.6V133.5z"/>
</g>
<g id="XMLID_260_">
	<path id="XMLID_304_" class="st1" d="M102.3,35.6c0-2.8-2.2-5-5-5c-2.8,0-5,2.2-5,5c0,2.8,2.2,5,5,5
		C100,40.6,102.3,38.3,102.3,35.6L102.3,35.6z M95.6,35.6c0-0.9,0.7-1.7,1.7-1.7c0.9,0,1.7,0.7,1.7,1.7c0,0.9-0.7,1.7-1.7,1.7
		C96.4,37.2,95.6,36.5,95.6,35.6L95.6,35.6z M95.6,35.6"/>
	<path id="XMLID_301_" class="st1" d="M37.3,87.2c-0.9,0-1.7,0.7-1.7,1.7c0,0.9,0.7,1.7,1.7,1.7h30c0.9,0,1.7-0.7,1.7-1.7
		c0-0.9-0.7-1.7-1.7-1.7H37.3z M37.3,87.2"/>
	<path id="XMLID_297_" class="st1" d="M88.9,35.6c0-2.8-2.2-5-5-5c-2.8,0-5,2.2-5,5c0,2.8,2.2,5,5,5C86.7,40.6,88.9,38.3,88.9,35.6
		L88.9,35.6z M82.3,35.6c0-0.9,0.7-1.7,1.7-1.7c0.9,0,1.7,0.7,1.7,1.7c0,0.9-0.7,1.7-1.7,1.7C83,37.2,82.3,36.5,82.3,35.6L82.3,35.6
		z M82.3,35.6"/>
	<path id="XMLID_294_" class="st1" d="M67.3,37.2c0.9,0,1.7-0.7,1.7-1.7c0-0.9-0.7-1.7-1.7-1.7h-30c-0.9,0-1.7,0.7-1.7,1.7
		c0,0.9,0.7,1.7,1.7,1.7H67.3z M67.3,37.2"/>
	<path id="XMLID_291_" class="st1" d="M110.6,20.6H27.3c-4.3,0-8.3,4-8.3,8.3v13.3c0,0.9,0.7,1.7,1.7,1.7c0.9,0,1.7-0.7,1.7-1.7
		V28.9c0-2.4,2.6-5,5-5h83.3c2.4,0,5,2.6,5,5v66.6c0,2.4-2.6,5-5,5H27.3c-2.4,0-5-2.6-5-5V77.2h88.3c0.9,0,1.7-0.7,1.7-1.7
		c0-0.9-0.7-1.7-1.7-1.7H20.7c-0.9,0-1.7,0.7-1.7,1.7v20c0,4.3,4,8.3,8.3,8.3h83.3c4.3,0,8.3-4,8.3-8.3V28.9
		C118.9,24.6,114.9,20.6,110.6,20.6L110.6,20.6z M110.6,20.6"/>
	<path id="XMLID_285_" class="st1" d="M20.7,70.6c0.9,0,1.7-0.7,1.7-1.7V50.6h88.3c0.9,0,1.7-0.7,1.7-1.7c0-0.9-0.7-1.7-1.7-1.7
		H20.7c-0.9,0-1.7,0.7-1.7,1.7v20C19,69.8,19.7,70.6,20.7,70.6L20.7,70.6z M20.7,70.6"/>
	<path id="XMLID_280_" class="st1" d="M92.3,88.9c0,2.8,2.2,5,5,5c2.8,0,5-2.2,5-5c0-2.8-2.2-5-5-5C94.5,83.9,92.3,86.1,92.3,88.9
		L92.3,88.9z M98.9,88.9c0,0.9-0.7,1.7-1.7,1.7c-0.9,0-1.7-0.7-1.7-1.7c0-0.9,0.7-1.7,1.7-1.7C98.2,87.2,98.9,88,98.9,88.9
		L98.9,88.9z M98.9,88.9"/>
	<path id="XMLID_276_" class="st1" d="M97.3,113.9H73.6c-0.5-1.4-1.6-2.5-3-3v-2c0-0.9-0.7-1.7-1.7-1.7c-0.9,0-1.7,0.7-1.7,1.7v2
		c-1.4,0.5-2.5,1.6-3,3H40.6c-0.9,0-1.7,0.7-1.7,1.7c0,0.9,0.7,1.7,1.7,1.7h23.6c0.7,1.9,2.5,3.3,4.7,3.3c2.2,0,4-1.4,4.7-3.3h23.6
		c0.9,0,1.7-0.7,1.7-1.7C98.9,114.6,98.2,113.9,97.3,113.9L97.3,113.9z M69,117.2c-0.9,0-1.7-0.7-1.7-1.7c0-0.9,0.7-1.7,1.7-1.7
		c0.9,0,1.7,0.7,1.7,1.7C70.6,116.4,69.9,117.2,69,117.2L69,117.2z M69,117.2"/>
	<path id="XMLID_273_" class="st1" d="M37.3,60.6c-0.9,0-1.7,0.7-1.7,1.7c0,0.9,0.7,1.7,1.7,1.7h30c0.9,0,1.7-0.7,1.7-1.7
		c0-0.9-0.7-1.7-1.7-1.7H37.3z M37.3,60.6"/>
	<path id="XMLID_269_" class="st1" d="M92.3,62.2c0,2.8,2.2,5,5,5c2.8,0,5-2.2,5-5c0-2.8-2.2-5-5-5C94.5,57.2,92.3,59.5,92.3,62.2
		L92.3,62.2z M98.9,62.2c0,0.9-0.7,1.7-1.7,1.7c-0.9,0-1.7-0.7-1.7-1.7s0.7-1.7,1.7-1.7C98.2,60.6,98.9,61.3,98.9,62.2L98.9,62.2z
		 M98.9,62.2"/>
	<path id="XMLID_265_" class="st1" d="M79,88.9c0,2.8,2.2,5,5,5c2.8,0,5-2.2,5-5c0-2.8-2.2-5-5-5C81.2,83.9,79,86.1,79,88.9L79,88.9
		z M85.6,88.9c0,0.9-0.7,1.7-1.7,1.7c-0.9,0-1.7-0.7-1.7-1.7c0-0.9,0.7-1.7,1.7-1.7C84.9,87.2,85.6,88,85.6,88.9L85.6,88.9z
		 M85.6,88.9"/>
	<path id="XMLID_261_" class="st1" d="M79,62.2c0,2.8,2.2,5,5,5c2.8,0,5-2.2,5-5c0-2.8-2.2-5-5-5C81.2,57.2,79,59.5,79,62.2L79,62.2
		z M85.6,62.2c0,0.9-0.7,1.7-1.7,1.7c-0.9,0-1.7-0.7-1.7-1.7s0.7-1.7,1.7-1.7C84.9,60.6,85.6,61.3,85.6,62.2L85.6,62.2z M85.6,62.2"
		/>
</g>
</svg>
