<?xml version="1.0" encoding="utf-8"?>
<!-- Generator: Adobe Illustrator 19.0.0, SVG Export Plug-In . SVG Version: 6.00 Build 0)  -->
<svg version="1.1" id="Layer_1" xmlns="http://www.w3.org/2000/svg" xmlns:xlink="http://www.w3.org/1999/xlink" x="0px" y="0px"
	 viewBox="0 0 137.2 137.2" style="enable-background:new 0 0 137.2 137.2;" xml:space="preserve">
<style type="text/css">
	.st0{fill:#D1D3D4;}
	.st1{fill:#1A1A1A;}
</style>
<g id="XMLID_119_">
	<rect id="XMLID_120_" x="0.7" y="18.8" class="st0" width="135" height="3"/>
</g>
<g id="XMLID_104_">
	<path id="XMLID_111_" class="st0" d="M122.7,14.9c-2,0-3.7-1.7-3.7-3.7s1.7-3.7,3.7-3.7s3.7,1.7,3.7,3.7S124.7,14.9,122.7,14.9z"/>
</g>
<g id="XMLID_96_">
	<path id="XMLID_101_" class="st0" d="M111.6,14.9c-2,0-3.7-1.7-3.7-3.7s1.7-3.7,3.7-3.7c2,0,3.7,1.7,3.7,3.7S113.6,14.9,111.6,14.9
		z"/>
</g>
<g id="XMLID_92_">
	<path id="XMLID_93_" class="st0" d="M100.5,14.9c-2,0-3.7-1.7-3.7-3.7s1.7-3.7,3.7-3.7c2,0,3.7,1.7,3.7,3.7S102.5,14.9,100.5,14.9z
		"/>
</g>
<g id="XMLID_69_">
	<path id="XMLID_73_" class="st1" d="M108.3,58.4H29.6c-3.1,0-5.5-2.5-5.5-5.5V38.1c0-3.1,2.5-5.5,5.5-5.5h78.6
		c3.1,0,5.5,2.5,5.5,5.5v14.8C113.8,55.9,111.3,58.4,108.3,58.4z M29.6,36.2c-1,0-1.8,0.8-1.8,1.8v14.8c0,1,0.8,1.8,1.8,1.8h78.6
		c1,0,1.8-0.8,1.8-1.8V38.1c0-1-0.8-1.8-1.8-1.8H29.6z"/>
</g>
<g id="XMLID_67_">
	<path id="XMLID_68_" class="st1" d="M112,70.8H69.4c-1,0-1.8-0.5-1.8-1.5c0-1,0.8-1.5,1.8-1.5H112c1,0,1.8,0.5,1.8,1.5
		C113.8,70.3,113,70.8,112,70.8z"/>
</g>
<g id="XMLID_59_">
	<path id="XMLID_60_" class="st1" d="M53.7,122.3h-24c-3.1,0-5.5-2.5-5.5-5.5V72.3c0-3.1,2.5-5.5,5.5-5.5h24c3.1,0,5.5,2.5,5.5,5.5
		v44.4C59.2,119.8,56.7,122.3,53.7,122.3z M29.6,70.4c-1,0-1.8,0.8-1.8,1.8v44.4c0,1,0.8,1.8,1.8,1.8h24c1,0,1.8-0.8,1.8-1.8V72.3
		c0-1-0.8-1.8-1.8-1.8H29.6z"/>
</g>
<g id="XMLID_144_">
	<path id="XMLID_148_" class="st0" d="M116.8,137.2H0V20.3C0,9.1,9.1,0,20.3,0h116.8v116.8C137.2,128,128,137.2,116.8,137.2z
		 M3.7,133.5h113.1c9.2,0,16.6-7.5,16.6-16.6V3.7H20.3c-9.2,0-16.6,7.5-16.6,16.6V133.5z"/>
</g>
<g id="XMLID_47_">
	<path id="XMLID_52_" class="st1" d="M112,80.8H69.4c-1,0-1.8-0.5-1.8-1.5c0-1,0.8-1.5,1.8-1.5H112c1,0,1.8,0.5,1.8,1.5
		C113.8,80.3,113,80.8,112,80.8z"/>
</g>
<g id="XMLID_55_">
	<path id="XMLID_56_" class="st1" d="M112,90.8H69.4c-1,0-1.8-0.5-1.8-1.5c0-1,0.8-1.5,1.8-1.5H112c1,0,1.8,0.5,1.8,1.5
		C113.8,90.3,113,90.8,112,90.8z"/>
</g>
<g id="XMLID_57_">
	<path id="XMLID_58_" class="st1" d="M112,100.8H69.4c-1,0-1.8-0.5-1.8-1.5c0-1,0.8-1.5,1.8-1.5H112c1,0,1.8,0.5,1.8,1.5
		C113.8,100.3,113,100.8,112,100.8z"/>
</g>
<g id="XMLID_63_">
	<path id="XMLID_64_" class="st1" d="M112,110.8H69.4c-1,0-1.8-0.5-1.8-1.5c0-1,0.8-1.5,1.8-1.5H112c1,0,1.8,0.5,1.8,1.5
		C113.8,110.3,113,110.8,112,110.8z"/>
</g>
<g id="XMLID_65_">
	<path id="XMLID_66_" class="st1" d="M112,120.8H69.4c-1,0-1.8-0.5-1.8-1.5c0-1,0.8-1.5,1.8-1.5H112c1,0,1.8,0.5,1.8,1.5
		C113.8,120.3,113,120.8,112,120.8z"/>
</g>
</svg>
