<?xml version="1.0" encoding="utf-8"?>
<!-- Generator: Adobe Illustrator 19.0.0, SVG Export Plug-In . SVG Version: 6.00 Build 0)  -->
<svg version="1.1" id="Layer_1" xmlns="http://www.w3.org/2000/svg" xmlns:xlink="http://www.w3.org/1999/xlink" x="0px" y="0px"
	 viewBox="0 0 137.2 137.2" style="enable-background:new 0 0 137.2 137.2;" xml:space="preserve">
<style type="text/css">
	.st0{fill:#D1D3D4;}
	.st1{fill:#1A1A1A;}
</style>
<g id="XMLID_181_">
	<rect id="XMLID_183_" x="0.2" y="18.9" class="st0" width="135" height="3"/>
</g>
<g id="XMLID_177_">
	<path id="XMLID_180_" class="st0" d="M122.7,14.9c-2,0-3.7-1.7-3.7-3.7s1.7-3.7,3.7-3.7s3.7,1.7,3.7,3.7S124.7,14.9,122.7,14.9z"/>
</g>
<g id="XMLID_175_">
	<path id="XMLID_176_" class="st0" d="M111.6,14.9c-2,0-3.7-1.7-3.7-3.7s1.7-3.7,3.7-3.7c2,0,3.7,1.7,3.7,3.7S113.6,14.9,111.6,14.9
		z"/>
</g>
<g id="XMLID_170_">
	<path id="XMLID_174_" class="st0" d="M100.5,14.9c-2,0-3.7-1.7-3.7-3.7s1.7-3.7,3.7-3.7c2,0,3.7,1.7,3.7,3.7S102.5,14.9,100.5,14.9
		z"/>
</g>
<g id="XMLID_184_">
	<path id="XMLID_206_" class="st0" d="M116.8,137.2H0V20.3C0,9.1,9.1,0,20.3,0h116.8v116.8C137.2,128,128,137.2,116.8,137.2z
		 M3.7,133.5h113.1c9.2,0,16.6-7.5,16.6-16.6V3.7H20.3c-9.2,0-16.6,7.5-16.6,16.6V133.5z"/>
</g>
<g id="XMLID_100_">
	<path id="XMLID_98_" class="st1" d="M69.7,66.2H75c2.1,0,3.8,1.7,3.8,3.8c0,2.1-1.7,3.8-3.8,3.8h-9.4c-1.1,0-2,0.9-2,2
		c0,1.1,0.9,2,2,2h4.8v3.6c0,1.1,0.9,2,2,2c1.1,0,2-0.9,2-2v-3.6H75c4.3,0,7.7-3.5,7.7-7.7c0-4.3-3.5-7.7-7.7-7.7h-5.3
		c-2.1,0-3.8-1.7-3.8-3.8c0-2.1,1.7-3.8,3.8-3.8H79c1.1,0,2-0.9,2-2c0-1.1-0.9-2-2-2h-4.7v-3.5c0-1.1-0.9-2-2-2c-1.1,0-2,0.9-2,2
		v3.5h-0.7c-4.3,0-7.7,3.5-7.7,7.7C62,62.7,65.4,66.2,69.7,66.2z"/>
	<path id="XMLID_102_" class="st1" d="M50.5,92.4h44.2c4.9,0,8.8-4,8.8-8.8V65c0-1.1-0.9-2-2-2c-1.1,0-2,0.9-2,2v18.6
		c0,2.7-2.2,4.9-4.9,4.9H50.5c-2.7,0-4.9-2.2-4.9-4.9V47.2c0-0.1,0-0.1,0-0.2v0c0,0,0-0.1,0-0.1c0,0,0-0.1,0-0.1c0,0,0,0,0-0.1
		c0,0,0-0.1,0-0.1c0,0,0,0,0,0c0,0,0-0.1,0-0.1c0,0,0,0,0-0.1l0-0.1c0,0,0,0,0-0.1c0,0,0,0,0-0.1c0,0,0-0.1-0.1-0.1l0,0
		c0,0,0-0.1-0.1-0.1c0,0,0,0,0,0c0,0-0.1-0.1-0.1-0.1c0,0,0,0,0,0c0,0-0.1,0-0.1-0.1c0,0-0.1,0-0.1-0.1c0,0,0,0,0,0
		c-0.1,0-0.1-0.1-0.2-0.1l-12.1-5.1c-1-0.4-2.2,0-2.6,1.1c-0.4,1,0,2.2,1.1,2.6l10.9,4.6v48.9c0,4.6,3.6,8.4,8.1,8.8
		c-0.9,1.4-1.5,3-1.5,4.8c0,4.8,3.9,8.7,8.7,8.7c4.8,0,8.7-3.9,8.7-8.7c0-1.8-0.5-3.4-1.4-4.8h20.9c-0.9,1.4-1.4,3-1.4,4.8
		c0,4.8,3.9,8.7,8.7,8.7c4.8,0,8.7-3.9,8.7-8.7c0-4.8-3.9-8.7-8.7-8.7H50.5c-2.7,0-4.9-2.2-4.9-4.9v-6.5
		C47,91.9,48.7,92.4,50.5,92.4z M92.5,106.3c2.6,0,4.8,2.2,4.8,4.8c0,2.6-2.2,4.8-4.8,4.8c-2.6,0-4.8-2.2-4.8-4.8
		C87.7,108.4,89.9,106.3,92.5,106.3z M57,106.3c2.6,0,4.8,2.2,4.8,4.8c0,2.6-2.2,4.8-4.8,4.8c-2.6,0-4.8-2.2-4.8-4.8
		C52.2,108.4,54.4,106.3,57,106.3z"/>
</g>
</svg>
