<?xml version="1.0" encoding="utf-8"?>
<!-- Generator: Adobe Illustrator 19.0.0, SVG Export Plug-In . SVG Version: 6.00 Build 0)  -->
<svg version="1.1" id="Layer_1" xmlns="http://www.w3.org/2000/svg" xmlns:xlink="http://www.w3.org/1999/xlink" x="0px" y="0px"
	 viewBox="0 0 270 88" style="enable-background:new 0 0 270 88;" xml:space="preserve">
<style type="text/css">
	.st0{fill:#D1D3D4;}
	.st1{fill:#BE1E2D;}
	.st2{fill:none;}
	.st3{fill:#666666;}
</style>
<g id="XMLID_4_">
	<path id="XMLID_5_" class="st0" d="M136.4,53.2l-16.4-13V33h13v8h6v-8.6c0-3.4-2.2-5.4-5.6-5.4h-13.7c-3.4,0-4.7,2-4.7,5.4v7.4
		c0,1.9,0.7,3.5,2.2,4.7l15.8,13V66h-13V56h-5v10.4c0,3.4,1.2,5.6,4.6,5.6h13.9c3.4,0,5.5-2.2,5.5-5.6V58
		C139,56,137.8,54.4,136.4,53.2z"/>
	<path id="XMLID_26_" class="st0" d="M166.9,27c-1.7,0-3.9,0.2-6.9,0.6c-2.4,0.3-5,0.6-7,0.9V27h-7v61h7V72h9.5c2.7,0,5-1.1,6.8-3
		c1.8-1.8,2.7-4.3,2.7-7V32C172,28.7,170.3,27,166.9,27z M166,61.1c0,3.4-1.8,4.9-5.1,4.9H153V33.1l13-0.4V61.1z"/>
	<path id="XMLID_29_" class="st0" d="M185.3,27c-3.4,0-5.3,2-5.3,5.4V40h6v-8h13v14h-14.2c-3.4,0-4.8,1.3-4.8,4.7v16.1
		c0,3.3,1.5,4.9,4.8,4.9c1.8,0,4.1-0.2,7.1-0.5c2.4-0.3,5.1-0.6,7.1-0.9V72h6V36.3c-3-2.7-4.9-5.3-6.7-9.3H185.3z M199,66l-13,0.3
		V50h13V66z"/>
	<path id="XMLID_30_" class="st0" d="M231,66h-12V45.8c-2-0.9-4-1.9-6-3.1v23.6c0,3.4,1.5,5.6,4.9,5.6h14.4c3.4,0,4.7-2.2,4.7-5.6
		V56h-6V66z"/>
	<path id="XMLID_31_" class="st0" d="M268,50l2-1.7V32.4c0-1.3-0.3-2.3-0.8-3.1c-1.5,2.4-3.2,4.7-5.2,6.7V46h-13v-0.7
		c-2,0.8-4,1.5-6,2.1v19c0,3.4,2,5.6,5.4,5.6h14.5c3.4,0,5.1-2.2,5.1-5.6V58h-6v8h-13V50H268z"/>
</g>
<g id="XMLID_9_">
	<polygon id="XMLID_10_" class="st1" points="30.1,61.1 23.6,27 18.4,27 11.9,61.1 5.7,27 0,27 9.1,72 14.5,72 20.9,38.4 27.4,72 
		32.9,72 42,27 36.3,27 	"/>
	<path id="XMLID_21_" class="st1" d="M68.2,27H53.6c-3.4,0-4.6,2-4.6,5.4v33.9c0,3.4,1.3,5.6,4.6,5.6h14.5c3.4,0,4.8-2.2,4.8-5.6V58
		h-6v8H54V50h17.2l1.8-1.7V32.4C73,29,71.6,27,68.2,27z M67,46H54V32h13V46z"/>
	<path id="XMLID_24_" class="st1" d="M101.8,27c-1.7,0-4.3,0.2-7.4,0.6C92,27.9,90,28.2,87,28.5V0h-6v72h16.3c2.7,0,5.1-1.1,6.9-3
		c1.8-1.8,2.9-4.3,2.9-7V32C107,28.7,105.1,27,101.8,27z M101,61.1c0,3.4-2,4.9-5.3,4.9H87V33.1l14-0.4V61.1z"/>
	<circle id="XMLID_32_" class="st1" cx="234.4" cy="48.8" r="4.2"/>
</g>
<path id="XMLID_167_" class="st2" d="M251.1,32.3h13v3.7c-3.7,3.9-8.1,7-13,9.2V32.3z"/>
<g id="XMLID_7_">
	<path id="XMLID_8_" class="st3" d="M232.3,27h-14.4c-3.4,0-4.9,2-4.9,5.4v10.3c2,1.2,4,2.2,6,3.1V33h12v8h6v-8.6
		C237,29,235.7,27,232.3,27z"/>
	<path id="XMLID_17_" class="st3" d="M269.2,29.2c-0.8-1.4-2.2-2.2-4.3-2.2h-14.5c-3.4,0-5.4,2-5.4,5.4v15c2-0.6,4-1.3,6-2.1V32h13
		v4.1C266,34,267.8,31.6,269.2,29.2z"/>
	<path id="XMLID_18_" class="st3" d="M199.8,27h-1.5c1.8,4,3.7,6.6,6.7,9.3v-3.9C205,29,203.2,27,199.8,27z"/>
</g>
</svg>
