<?xml version="1.0" encoding="utf-8"?>
<!-- Generator: Adobe Illustrator 19.0.0, SVG Export Plug-In . SVG Version: 6.00 Build 0)  -->
<svg version="1.1" id="Layer_1" xmlns="http://www.w3.org/2000/svg" xmlns:xlink="http://www.w3.org/1999/xlink" x="0px" y="0px"
	 viewBox="0 0 46.9 43" style="enable-background:new 0 0 46.9 43;" xml:space="preserve">
<style type="text/css">
	.st0{fill:#BE1E2D;}
</style>
<path id="XMLID_60_" class="st0" d="M46.6,0.2c-0.3-0.2-0.7-0.3-1-0.1L1.1,19.5c-0.7,0.3-1.2,1-1.1,1.8c0,0.8,0.5,1.5,1.3,1.8
	l13,4.3v11.7c0,1.1,0.7,2,1.7,2.3c1,0.3,2.1,0,2.8-0.9l5.4-7.9l11.5,9.9c0.3,0.3,0.8,0.4,1.3,0.4c0.2,0,0.4,0,0.6-0.1
	c0.7-0.2,1.2-0.8,1.3-1.5l8-40.2C47,0.9,46.8,0.5,46.6,0.2L46.6,0.2z M23.3,30.6l-6.1,8.8c-0.2,0.3-0.4,0.2-0.6,0.2
	c-0.1,0-0.3-0.1-0.3-0.4V26.8c0-0.4-0.2-0.8-0.7-0.9L1.9,21.3L41.4,4L21.9,20c-0.4,0.3-0.5,1-0.1,1.4c0.2,0.2,0.5,0.3,0.7,0.3
	c0.2,0,0.4,0,0.6-0.2L40.1,7.6L23.3,30.6z M37,41.1L25.4,31L44,5.5L37,41.1z M37,41.1"/>
</svg>
