<?xml version="1.0" encoding="utf-8"?>
<!-- Generator: Adobe Illustrator 19.0.0, SVG Export Plug-In . SVG Version: 6.00 Build 0)  -->
<svg version="1.1" id="Layer_1" xmlns="http://www.w3.org/2000/svg" xmlns:xlink="http://www.w3.org/1999/xlink" x="0px" y="0px"
	 viewBox="0 0 24.8 43.9" style="enable-background:new 0 0 24.8 43.9;" xml:space="preserve">
<style type="text/css">
	.st0{fill:#BE1E2D;}
</style>
<g id="XMLID_41_">
	<path id="XMLID_42_" class="st0" d="M21.6,0H3.2C1.4,0,0,1.4,0,3.2v37.5c0,1.8,1.4,3.2,3.2,3.2h18.5c1.8,0,3.2-1.4,3.2-3.2V3.2
		C24.8,1.4,23.4,0,21.6,0L21.6,0z M7.9,1.9H17c0.2,0,0.4,0.3,0.4,0.8c0,0.4-0.2,0.8-0.4,0.8H7.9c-0.2,0-0.4-0.3-0.4-0.8
		C7.4,2.3,7.6,1.9,7.9,1.9L7.9,1.9z M12.4,40.7c-1.1,0-2-0.9-2-2c0-1.1,0.9-2,2-2c1.1,0,2,0.9,2,2C14.5,39.8,13.5,40.7,12.4,40.7
		L12.4,40.7z M22.4,33.7H2.4V5.4h20.1V33.7z M22.4,33.7"/>
</g>
</svg>
